<?xml version="1.0" encoding="utf-8"?>
<!-- Generator: Adobe Illustrator 26.3.1, SVG Export Plug-In . SVG Version: 6.00 Build 0)  -->
<svg version="1.1" id="Layer_1" xmlns="http://www.w3.org/2000/svg" xmlns:xlink="http://www.w3.org/1999/xlink" x="0px" y="0px"
	 viewBox="0 0 1000 1000" style="enable-background:new 0 0 1000 1000;" xml:space="preserve">
<style type="text/css">
	.st0{fill:#FFFFFF;}
</style>
<path class="st0" d="M902.3,778.7v154.8c0,8.7-1.6,16.8-4.8,24.2c-3.2,7.4-7.6,13.9-13.1,19.4s-12.1,10-19.8,13.5
	c-7.7,3.5-15.8,5.2-24.2,4.8H159.2c-8.7,0-16.8-1.6-24.2-4.8c-7.4-3.2-13.9-7.6-19.4-13.1s-10-12.1-13.5-19.8
	c-3.5-7.7-5.2-15.8-4.8-24.2V778.7c0-12.9,2.4-25,7.3-36.3c4.8-11.3,11.5-21.1,19.8-29.5c8.4-8.4,18.2-15,29.5-19.8
	c11.3-4.8,23.4-7.3,36.3-7.3c0-8.7,1.6-16.8,4.8-24.2c3.2-7.4,7.6-13.9,13.1-19.4c5.5-5.5,12.1-10,19.8-13.5s15.8-5.2,24.2-4.8H314
	c7.4,0,14.8,1.5,22.3,4.4s14,7.1,19.8,12.6s10.5,11.5,14,17.9c3.5,6.5,5.5,13.9,5.8,22.3v4.8h92.9V311.3
	c-18.1-3.9-34.7-10.5-49.8-19.8c-15.2-9.4-28.2-20.6-39.2-33.9c-11-13.2-19.5-28.4-25.6-45.5c-6.1-17.1-9.2-34.7-9.2-52.7
	c0-21.3,4-41.3,12.1-60c8.1-18.7,19-35.2,32.9-49.3c13.9-14.2,30.3-25.3,49.3-33.4c19-8.1,39.2-12.1,60.5-12.1
	c21.3,0,41.3,4,60,12.1c18.7,8.1,35.2,19,49.3,32.9s25.3,30.3,33.4,49.3c8.1,19,12.1,39.2,12.1,60.5c0,18.4-3.1,36-9.2,52.7
	s-14.7,31.8-25.6,45c-11,13.2-24,24.7-39.2,34.4c-15.2,9.7-31.8,16.3-49.8,19.8v374.5h278.7c12.9,0,25,2.4,36.3,7.3
	c11.3,4.8,21.1,11.5,29.5,19.8c8.4,8.4,15,18.2,19.8,29.5S902.3,765.8,902.3,778.7z M406.9,159.4c0,12.9,2.4,25,7.3,36.3
	c4.8,11.3,11.5,21.1,19.8,29.5s18.2,15,29.5,19.8s23.4,7.3,36.3,7.3c12.9,0,25-2.4,36.3-7.3s21.1-11.5,29.5-19.8
	c8.4-8.4,15-18.2,19.8-29.5c4.8-11.3,7.3-23.4,7.3-36.3c0-12.9-2.4-25-7.3-36.3c-4.8-11.3-11.5-21.1-19.8-29.5
	c-8.4-8.4-18.2-15-29.5-19.8s-23.4-7.3-36.3-7.3c-12.9,0-25,2.4-36.3,7.3S442.4,85.2,434,93.6s-15,18.2-19.8,29.5
	C409.3,134.4,406.9,146.5,406.9,159.4z M840.4,933.5V778.7c0-3.5-0.6-7.1-1.9-10.6c-1.3-3.5-3.4-6.9-6.3-10.2
	c-2.9-3.2-5.8-5.6-8.7-7.3c-2.9-1.6-6.5-2.6-10.6-2.9H190.1c-8.4,0-15.6,3.1-21.8,9.2c-6.1,6.1-9.2,13.4-9.2,21.8v154.8H840.4z"/>
</svg>
