<?xml version="1.0" encoding="utf-8"?>
<!-- Generator: Adobe Illustrator 26.3.1, SVG Export Plug-In . SVG Version: 6.00 Build 0)  -->
<svg version="1.1" id="Layer_1" xmlns="http://www.w3.org/2000/svg" xmlns:xlink="http://www.w3.org/1999/xlink" x="0px" y="0px"
	 viewBox="0 0 1000 1000" style="enable-background:new 0 0 1000 1000;" xml:space="preserve">
<style type="text/css">
	.st0{fill:#FFFFFF;}
</style>
<path class="st0" d="M500,4.4c45.4,0,89.2,5.8,131.4,17.5S713.1,50.3,750.1,72c37,21.7,70.4,47.5,100.2,77.4
	c29.8,29.8,55.6,63.3,77.4,100.2S966,326,977.3,367.9s17.4,85.8,18,131.9c0,45.7-5.8,89.7-17.5,131.9s-28.4,81.6-50.1,118.2
	s-47.5,70.2-77.4,100.7c-29.8,30.5-63.3,56.3-100.2,77.4c-37,21.1-76.4,37.6-118.2,49.6c-41.8,12-85.8,18-131.9,18
	c-45.7,0-89.7-5.8-131.9-17.5s-81.6-28.4-118.2-50.1s-70.1-47.7-100.2-77.9c-30.2-30.2-56-63.6-77.4-100.2s-38-76.1-49.6-118.2
	S5,545.5,4.6,499.8c0-45.4,5.8-89.2,17.5-131.4s28.4-81.7,50.1-118.7s47.5-70.4,77.4-100.2S212.9,93.8,249.9,72
	s76.4-38.3,118.2-49.6S453.9,5.1,500,4.4z M498.5,948.9c41.2,0,80.9-5.4,119.2-16.1s74.1-25.8,107.5-45.3s63.7-42.8,91-70.1
	s50.6-57.6,70.1-91c19.5-33.4,34.5-69.3,45.3-107.5c10.7-38.3,16.1-78.2,16.1-119.7c0-41.2-5.4-80.9-16.1-119.2
	c-10.7-38.3-25.8-74-45.3-107.1c-19.5-33.1-42.8-63.4-70.1-91s-57.6-51.1-91-70.6S656,76.9,617.8,66.2s-78-16.1-119.2-16.1
	s-80.9,5.4-119.2,16.1s-74,25.8-107.1,45.3s-63.4,42.8-91,70.1s-51.1,57.6-70.6,91s-34.5,69.3-45.3,107.5s-16.1,78-16.1,119.2
	c0,41.5,5.4,81.4,16.1,119.7c10.7,38.3,25.8,74,45.3,107.1c19.5,33.1,42.8,63.4,70.1,91c27.2,27.6,57.6,51.1,91,70.6
	s69.3,34.5,107.5,45.3S457.3,948.9,498.5,948.9z M719.5,309v17h-3.9v-21.4h6.3l5.4,15.1l4.9-15.1h6.3V326h-3.9v-17l-5.8,17h-3.4
	L719.5,309z M701,326v-17.5h-6.8v-3.9h18v3.9h-6.8V326H701z M587.6,304.6l-43.3,69.6H259.6l43.3-69.6H587.6z M644,304.6l216,346.5
	h-81.7L735.5,582H609l43.3-69.6h39.9L644,435.5L509.2,651.1H150.1l86.1-138.7H173l43.3-69.1h277.4l-43.3,69.1H318L274.7,582h196.1
	L644,304.6z"/>
</svg>
